# Blender v3.1.2 OBJ File: 'cenario-jogo.blend1'
# www.blender.org
v -1.000000 -0.423105 1.000000
v -1.000000 0.560174 1.000000
v -1.000000 -0.423105 -1.000000
v -1.000000 0.560174 -1.000000
v 1.000000 -0.423105 1.000000
v 1.000000 0.560174 1.000000
v 1.000000 -0.423105 -1.000000
v 1.000000 0.560174 -1.000000
v -1.000000 -0.423105 -0.600000
v -1.000000 -0.423105 0.600000
v -1.000000 0.560174 0.600000
v -1.000000 0.560174 -0.600000
v 1.000000 -0.423105 0.600000
v 1.000000 -0.423105 -0.600000
v 1.000000 0.560174 -0.600000
v 1.000000 0.560174 0.600000
v -1.000000 0.268558 1.000000
v -1.000000 0.268558 -1.000000
v 1.000000 0.268558 -1.000000
v 1.000000 0.268558 1.000000
v 1.000000 0.268558 -0.600000
v 1.000000 0.268558 0.600000
v -1.000000 0.268558 0.600000
v -1.000000 0.268558 -0.600000
vt 0.158651 0.651264
vt 0.111599 0.752107
vt 0.111599 0.651264
vt 0.962698 1.000000
vt 0.640000 0.926481
vt 0.962698 0.926481
vt 0.481349 0.348735
vt 0.528401 0.247892
vt 0.528401 0.348735
vt 0.640000 0.000000
vt 0.962698 0.073519
vt 0.640000 0.073519
vt 0.640000 0.348735
vt 0.962698 0.247892
vt 0.962698 0.348735
vt 0.158651 0.348735
vt 0.481349 0.247892
vt 0.158651 0.752107
vt 0.481349 0.651265
vt 0.481349 0.752108
vt 0.640000 0.752108
vt 0.962698 0.651265
vt 0.962698 0.752108
vt 0.640000 0.651265
vt 0.528401 0.651265
vt 0.528401 0.752108
vt 0.158651 0.247892
vt 0.111599 0.348735
vt 0.111599 0.247892
vt 0.000000 0.348735
vt 0.000000 0.247892
vt 0.640000 0.247892
vt 0.000000 0.752107
vt 0.000000 0.651264
vt 0.640000 1.000000
vt 0.962698 0.000000
vn -1.0000 0.0000 0.0000
vn 0.0000 0.0000 -1.0000
vn 1.0000 0.0000 0.0000
vn 0.0000 0.0000 1.0000
vn 0.0000 -1.0000 0.0000
vn 0.0000 1.0000 0.0000
s off
f 12/1/1 18/2/1 24/3/1
f 4/4/2 19/5/2 18/6/2
f 16/7/3 20/8/3 22/9/3
f 6/10/4 17/11/4 20/12/4
f 13/13/5 1/14/5 10/15/5
f 11/16/6 6/17/6 16/7/6
f 4/18/6 15/19/6 8/20/6
f 12/1/6 16/7/6 15/19/6
f 7/21/5 9/22/5 3/23/5
f 14/24/5 10/15/5 9/22/5
f 8/20/3 21/25/3 19/26/3
f 15/19/3 22/9/3 21/25/3
f 2/27/1 23/28/1 17/29/1
f 11/16/1 24/3/1 23/28/1
f 17/29/1 10/30/1 1/31/1
f 21/25/3 13/13/3 14/24/3
f 19/26/3 14/24/3 7/21/3
f 20/12/4 1/14/4 5/32/4
f 22/9/3 5/32/3 13/13/3
f 18/6/2 7/21/2 3/23/2
f 24/3/1 3/33/1 9/34/1
f 12/1/1 4/18/1 18/2/1
f 4/4/2 8/35/2 19/5/2
f 16/7/3 6/17/3 20/8/3
f 6/10/4 2/36/4 17/11/4
f 13/13/5 5/32/5 1/14/5
f 11/16/6 2/27/6 6/17/6
f 4/18/6 12/1/6 15/19/6
f 12/1/6 11/16/6 16/7/6
f 7/21/5 14/24/5 9/22/5
f 14/24/5 13/13/5 10/15/5
f 8/20/3 15/19/3 21/25/3
f 15/19/3 16/7/3 22/9/3
f 2/27/1 11/16/1 23/28/1
f 11/16/1 12/1/1 24/3/1
f 17/29/1 23/28/1 10/30/1
f 21/25/3 22/9/3 13/13/3
f 19/26/3 21/25/3 14/24/3
f 20/12/4 17/11/4 1/14/4
f 22/9/3 20/8/3 5/32/3
f 18/6/2 19/5/2 7/21/2
f 24/3/1 18/2/1 3/33/1
