# Blender v3.1.2 OBJ File: 'cenario-jogo.blend1'
# www.blender.org
v 0.003054 0.501378 -4.877936
v 0.003054 -0.424105 -4.877936
v -4.219164 -0.424105 -2.437053
v -4.219164 0.501378 -2.437053
v -4.216408 0.501378 2.439937
v -4.216408 -0.424105 2.439937
v 0.008568 -0.424105 4.876043
v 0.008568 0.501378 4.876043
v 2.809385 0.500556 -1.621705
v 2.809385 -0.423283 -1.621705
v 0.003980 0.500556 -3.239292
v 0.003980 -0.423283 -3.239292
v -2.799594 0.500556 -1.618534
v -2.799594 -0.423283 -1.618534
v -2.797764 0.500556 1.619812
v -2.797764 -0.423283 1.619812
v 0.007642 0.500556 3.237399
v 0.007642 -0.423283 3.237399
v 2.811216 0.500556 1.616641
v 2.811216 -0.423283 1.616641
v 4.228160 0.268558 -0.600000
v 4.228160 -0.423105 -0.600000
v -1.591913 0.268558 -3.958624
v -1.591913 -0.423105 -3.958624
v -2.628437 0.268558 -3.353924
v -2.628437 -0.423105 -3.353924
v -2.623705 0.268558 3.358285
v -2.623705 -0.423105 3.358285
v -1.584135 0.268558 3.957697
v -1.584135 -0.423105 3.957697
v 4.230659 0.268558 0.600000
v 4.230659 -0.423105 0.600000
v 4.230788 0.501378 2.435162
v 4.228030 0.501378 -2.441830
v 4.228030 -0.424105 -2.441830
v 4.230788 -0.424105 2.435162
vt 0.739384 0.999734
vt 0.548859 0.600792
vt 0.739223 0.600754
vt 0.507559 0.005735
vt 0.548859 0.404558
vt 0.739223 0.404519
vt 0.739339 0.005730
vt 0.739339 0.005730
vt 0.548859 0.404558
vt 0.739223 0.404519
vt 0.507559 0.005735
vt 0.548859 0.600792
vt 0.739223 0.600754
vt 0.739384 0.999734
vt 0.253301 0.351760
vt 0.485372 0.999856
vt 0.485372 0.351772
vt 0.253435 0.827030
vt 0.485358 0.178845
vt 0.485358 0.827030
vt 0.253301 0.999855
vt 0.485372 0.351784
vt 0.485372 0.999868
vt 0.253434 0.827030
vt 0.485358 0.178845
vt 0.485359 0.827030
vt 0.253301 0.351741
vt 0.485372 0.999837
vt 0.485372 0.351754
vt 0.253435 0.178845
vt 0.485358 0.827030
vt 0.485358 0.178845
vt 0.000140 0.801431
vt 0.231926 0.005804
vt 0.232070 0.999674
vt 0.000140 0.801431
vt 0.231925 0.005803
vt 0.232070 0.999763
vt 0.761873 0.204617
vt 0.993570 0.999912
vt 0.993551 0.005554
vt 0.761873 0.204617
vt 0.993570 0.999912
vt 0.993551 0.005554
vt 0.761873 0.204617
vt 0.993570 0.999912
vt 0.993551 0.005554
vt 0.993551 0.005554
vt 0.761802 0.801685
vt 0.993570 0.999912
vt 0.232070 0.999763
vt 0.000172 0.204039
vt 0.231925 0.005803
vt 0.761873 0.204617
vt 0.993570 0.999912
vt 0.993551 0.005554
vt 0.000140 0.801431
vt 0.231925 0.005803
vt 0.232070 0.999763
vt 0.232070 0.999763
vt 0.000172 0.204039
vt 0.231925 0.005803
vt 0.993551 0.005554
vt 0.761802 0.801685
vt 0.993570 0.999912
vt 0.000140 0.801431
vt 0.231926 0.005803
vt 0.232070 0.999763
vt 0.485082 0.999483
vt 0.253780 0.005946
vt 0.485153 0.005948
vt 0.485081 0.999483
vt 0.253780 0.005946
vt 0.485153 0.005948
vt 0.485153 0.005948
vt 0.253721 0.999549
vt 0.485082 0.999483
vt 0.507558 0.005734
vt 0.548859 0.600792
vt 0.548859 0.404558
vt 0.739223 0.600754
vt 0.739339 0.005730
vt 0.739223 0.404519
vt 0.739384 0.999735
vt 0.507482 0.999835
vt 0.507482 0.999835
vt 0.253301 0.999843
vt 0.253435 0.178845
vt 0.253301 0.351772
vt 0.253435 0.178845
vt 0.253301 0.999824
vt 0.253435 0.827030
vt 0.000172 0.204039
vt 0.000172 0.204039
vt 0.761802 0.801685
vt 0.761802 0.801685
vt 0.761802 0.801685
vt 0.761873 0.204617
vt 0.000140 0.801431
vt 0.761802 0.801685
vt 0.000172 0.204039
vt 0.000140 0.801431
vt 0.761873 0.204617
vt 0.000172 0.204039
vt 0.253721 0.999549
vt 0.253721 0.999548
vt 0.253780 0.005946
vt 0.507482 0.999835
vn -0.2707 0.1644 0.9485
vn 0.5004 -0.0006 0.8658
vn 0.5006 0.0042 0.8657
vn 0.5029 0.0413 0.8634
vn 0.6940 -0.5861 0.4181
vn 0.0498 0.9948 0.0887
vn -0.6087 0.7490 -0.2616
vn 0.0524 0.9945 0.0911
vn 0.5005 0.0002 0.8657
vn 0.9566 0.1649 0.2404
vn 0.9566 0.1647 -0.2405
vn 0.4995 0.0000 -0.8663
vn 0.4995 0.0006 -0.8663
vn 0.6802 -0.6144 -0.3998
vn 0.4998 0.0020 -0.8662
vn 0.6856 0.6108 -0.3960
vn 0.4995 0.0020 -0.8663
vn -0.2711 0.1647 -0.9484
vn -0.4718 -0.8332 0.2882
vn -0.4716 0.5532 0.6867
vn -0.4718 0.8384 0.2728
vn 0.0137 -0.8332 0.5527
vn 0.3589 0.5532 0.7518
vn 0.0003 0.8384 0.5450
vn 0.4856 -0.8332 0.2645
vn 0.8305 0.5532 0.0651
vn 0.4721 0.8384 0.2723
vn 0.4718 -0.8332 -0.2882
vn 0.4716 0.5532 -0.6867
vn 0.4718 0.8384 -0.2728
vn -0.0137 -0.8332 -0.5527
vn -0.3589 0.5532 -0.7518
vn -0.0003 0.8384 -0.5450
vn -0.4856 -0.8332 -0.2645
vn -0.8305 0.5532 -0.0651
vn -0.4721 0.8384 -0.2723
vn -0.7786 0.6099 -0.1474
vn 0.0006 0.6099 0.7925
vn -0.2617 0.6098 -0.7481
vn -0.6858 0.6102 0.3967
vn -0.4718 -0.8384 0.2728
vn -0.5175 -0.6099 -0.6002
vn 0.6860 -0.6102 -0.3964
vn -0.4721 -0.8384 -0.2722
vn 0.2610 -0.6099 -0.7483
vn 0.6862 -0.6103 0.3959
vn 0.0003 -0.8384 0.5450
vn -0.7786 -0.6099 0.1478
vn -0.0003 -0.6102 -0.7923
vn -0.5170 -0.6098 0.6007
vn -0.4720 -0.8384 -0.2724
vn 0.6861 -0.6103 0.3961
vn -0.5176 0.6099 -0.6001
vn -0.4717 0.8384 0.2730
vn 0.6859 0.6102 -0.3965
vn 0.4718 -0.8384 -0.2728
vn 0.5171 -0.6098 0.6006
vn -0.6860 -0.6102 0.3964
vn 0.2616 0.6099 0.7480
vn 0.6858 0.6102 -0.3967
vn -0.7785 0.6098 0.1482
vn 0.0006 0.8384 0.5450
vn -0.0004 0.6102 -0.7923
vn -0.2617 -0.6099 -0.7480
vn 0.4719 -0.8384 -0.2726
vn -0.6860 -0.6102 0.3963
vn -0.4721 0.8384 -0.2722
vn -0.5171 0.6096 0.6008
vn 0.6864 0.6102 0.3956
vn -0.9685 0.0862 0.2334
vn -0.0371 -0.6358 0.7710
vn 0.0001 0.6099 0.7925
vn 0.6862 0.0862 0.7223
vn 0.6859 -0.6359 -0.3537
vn 0.6859 0.6101 -0.3965
vn 0.2819 0.0862 -0.9555
vn -0.6492 -0.6359 -0.4174
vn -0.6863 0.6101 -0.3959
vn -0.6772 -0.6250 -0.3884
vn -0.9999 -0.0159 0.0021
vn -0.2615 0.9652 0.0015
vn 0.4114 0.8208 -0.3963
vn -0.2606 0.9654 0.0003
vn -1.0000 0.0001 0.0005
vn -0.6860 0.1644 0.7088
vn -1.0000 -0.0019 0.0006
vn -0.6864 0.1649 -0.7083
vn -1.0000 -0.0002 0.0005
vn 0.0724 0.6566 0.7508
vn 0.0000 -0.6100 0.7924
vn 0.5005 0.0001 0.8657
vn 0.4999 -0.0101 0.8660
vn -0.0032 -0.6166 0.7873
vn 0.7049 -0.6003 0.3779
vn 0.1932 -0.9220 0.3355
vn 0.7561 -0.3999 0.5180
vn 0.0700 -0.4003 0.9137
vn 0.5001 -0.0009 0.8659
vn 0.6134 0.6571 0.4382
vn 0.6134 0.6569 -0.4383
vn 0.6859 -0.6101 -0.3965
vn 0.7081 -0.5927 -0.3837
vn -0.0005 -0.6101 -0.7923
vn 0.4995 0.0004 -0.8663
vn -0.0004 0.6100 -0.7924
vn 0.6861 0.6099 -0.3966
vn 0.0721 0.6569 -0.7505
vn -0.4724 -0.5532 -0.6862
vn -0.4722 -0.8384 -0.2722
vn -0.4722 0.8332 -0.2877
vn -0.8304 -0.5532 0.0660
vn -0.4853 0.8332 0.2650
vn -0.3580 -0.5532 0.7522
vn -0.0131 0.8332 0.5528
vn 0.4724 -0.5532 0.6862
vn 0.4722 -0.8384 0.2722
vn 0.4722 0.8332 0.2877
vn 0.8304 -0.5532 -0.0660
vn 0.4853 0.8332 -0.2650
vn 0.3580 -0.5532 -0.7522
vn -0.0003 -0.8384 -0.5450
vn 0.0131 0.8332 -0.5528
vn 0.5354 0.8386 0.1003
vn 0.4717 0.8384 -0.2730
vn -0.6860 0.6102 0.3963
vn 0.1808 0.8386 0.5138
vn 0.4723 0.8384 0.2720
vn 0.3551 -0.8386 0.4131
vn 0.0001 -0.8384 0.5450
vn -0.0005 -0.6102 -0.7923
vn -0.1803 -0.8386 0.5140
vn -0.4719 -0.8384 0.2726
vn 0.6859 -0.6102 -0.3966
vn 0.5353 -0.8386 -0.1009
vn 0.4720 -0.8384 0.2724
vn -0.6863 -0.6101 -0.3960
vn 0.0003 -0.6100 0.7924
vn 0.3548 -0.8386 -0.4133
vn -0.0006 0.6102 -0.7923
vn 0.3553 0.8386 0.4129
vn -0.3551 -0.8386 -0.4131
vn -0.0001 -0.8384 -0.5450
vn -0.1808 0.8386 -0.5138
vn -0.4723 0.8384 -0.2720
vn 0.6861 0.6102 0.3962
vn -0.6865 0.6101 -0.3956
vn 0.5353 0.8386 -0.1012
vn -0.6863 -0.6101 -0.3959
vn 0.1806 -0.8386 0.5139
vn 0.3546 0.8386 -0.4135
vn -0.0006 0.8384 -0.5450
vn -0.6489 0.6360 0.4177
vn 0.2826 -0.0862 0.9554
vn 0.6860 0.6360 0.3534
vn 0.6857 -0.0862 -0.7227
vn -0.0375 0.6359 -0.7709
vn -0.0004 -0.6101 -0.7923
vn -0.9687 -0.0862 -0.2326
vn -0.6887 -0.5898 -0.4216
vn -0.6883 -0.6077 0.3963
vn -1.0000 0.0039 0.0006
vn -0.7394 -0.6732 0.0002
vn -0.9181 -0.0088 0.3963
vn -0.9182 -0.0091 -0.3960
vn -1.0000 -0.0003 0.0004
vn -0.6860 0.6569 0.3127
vn -0.6863 0.6569 -0.3121
vn -1.0000 0.0000 0.0005
s off
f 2/1/1 23/2/2 24/3/3
f 23/2/4 4/4/5 25/5/4
f 26/6/6 2/1/7 24/3/8
f 25/5/9 3/7/10 26/6/3
f 6/8/11 27/9/12 28/10/13
f 5/11/14 29/12/12 27/9/12
f 30/13/15 6/8/16 28/10/17
f 29/12/12 7/14/18 30/13/13
f 15/15/19 14/16/20 16/17/21
f 17/18/22 16/19/23 18/20/24
f 19/21/25 18/22/26 20/23/27
f 9/24/28 20/25/29 10/26/30
f 11/27/31 10/28/32 12/29/33
f 13/30/34 12/31/35 14/32/36
f 12/33/33 35/34/37 2/35/38
f 10/36/30 36/37/39 35/38/40
f 15/39/41 8/40/42 5/41/43
f 13/42/44 5/43/45 4/44/46
f 17/45/47 33/46/48 8/47/49
f 1/48/50 13/49/51 4/50/52
f 7/51/53 16/52/54 6/53/55
f 9/54/56 1/55/57 34/56/58
f 16/57/21 3/58/59 6/59/60
f 36/60/61 18/61/62 7/62/63
f 33/63/64 9/64/65 34/65/66
f 14/66/67 2/67/68 3/68/69
f 35/69/70 1/70/71 2/71/72
f 3/72/73 5/73/74 6/74/75
f 7/75/76 33/76/77 36/77/78
f 33/78/79 21/79/80 31/80/80
f 22/81/81 36/82/82 32/83/83
f 21/79/84 35/84/85 22/81/86
f 36/82/87 31/80/88 32/83/86
f 2/1/89 1/85/90 23/2/91
f 23/2/92 1/85/93 4/4/94
f 26/6/95 3/7/96 2/1/97
f 25/5/98 4/4/52 3/7/99
f 6/8/100 5/11/101 27/9/12
f 5/11/102 8/86/103 29/12/12
f 30/13/104 7/14/105 6/8/106
f 29/12/12 8/86/103 7/14/107
f 15/15/108 13/87/109 14/16/110
f 17/18/111 15/88/41 16/19/112
f 19/21/113 17/89/47 18/22/114
f 9/24/115 19/90/116 20/25/117
f 11/27/118 9/91/56 10/28/119
f 13/30/120 11/92/121 12/31/122
f 12/33/123 10/93/124 35/34/125
f 10/36/126 20/94/127 36/37/78
f 15/39/128 17/95/129 8/40/130
f 13/42/131 15/96/132 5/43/133
f 17/45/134 19/97/135 33/46/136
f 1/48/137 11/98/121 13/49/138
f 7/51/139 18/99/24 16/52/140
f 9/54/141 11/100/142 1/55/90
f 16/57/143 14/101/144 3/58/145
f 36/60/146 20/102/27 18/61/147
f 33/63/148 19/103/116 9/64/149
f 14/66/150 12/104/151 2/67/72
f 35/69/152 34/105/58 1/70/153
f 3/72/154 4/106/52 5/73/155
f 7/75/156 8/107/157 33/76/158
f 33/78/159 34/108/160 21/79/161
f 22/81/162 35/84/163 36/82/164
f 21/79/165 34/108/58 35/84/166
f 36/82/167 33/78/148 31/80/168
