# Blender v3.2.0 OBJ File: 'arma.blend1'
# www.blender.org
v 0.016955 0.003575 -0.320900
v 0.016955 -0.030804 -0.355911
v -0.016955 0.003575 -0.320900
v -0.016955 -0.030804 -0.355911
v 0.016955 0.032942 -0.359723
v 0.016955 0.028863 -0.339239
v 0.016955 -0.001064 -0.378724
v 0.016955 0.021924 -0.374237
v -0.016955 0.028863 -0.339239
v -0.016955 0.032942 -0.359723
v -0.016955 0.021924 -0.374237
v -0.016955 -0.001064 -0.378724
v 0.016955 -0.070825 -0.355911
v -0.016955 -0.070825 -0.355911
v 0.043091 -0.090103 0.282133
v 0.043091 -0.070825 0.282133
v 0.063197 -0.112793 -0.383628
v 0.063197 -0.070825 -0.383628
v 0.000000 -0.112793 -0.383628
v 0.000000 -0.070825 -0.383628
v 0.000000 -0.103469 0.282133
v 0.000000 -0.070825 0.282133
v 0.063197 -0.112793 -0.050747
v 0.063197 -0.070825 -0.050747
v 0.000000 -0.070825 -0.050747
v 0.000000 -0.112793 -0.050747
v 0.063197 -0.070825 0.194803
v 0.000000 -0.070825 0.194803
v 0.000000 -0.109422 0.194803
v 0.063197 -0.096055 0.194803
v 0.056825 -0.522928 -0.144955
v 0.056825 -0.510058 -0.383472
v 0.000000 -0.510058 -0.406039
v 0.000000 -0.522928 -0.126542
v 0.056825 -0.266315 -0.334923
v 0.000000 -0.266315 -0.357490
v 0.056825 -0.395921 -0.127603
v 0.000000 -0.395921 -0.109190
v 0.056825 -0.363358 -0.371124
v 0.000000 -0.363358 -0.393691
v 0.056825 -0.207902 -0.318158
v 0.056825 -0.149412 -0.321911
v 0.000000 -0.149193 -0.336687
v 0.000000 -0.207902 -0.340724
v 0.000000 -0.192090 -0.065658
v 0.024359 -0.103948 0.167596
v 0.000000 -0.103948 0.167596
v 0.024359 -0.189050 0.163613
v 0.000000 -0.189050 0.163613
v 0.024359 -0.235153 0.128907
v 0.000000 -0.235153 0.128907
v 0.024359 -0.252671 0.057807
v 0.000000 -0.252671 0.057807
v 0.024359 -0.247227 -0.049803
v 0.000000 -0.247227 -0.049803
v 0.056825 -0.266315 -0.103101
v 0.000000 -0.266315 -0.084688
v 0.024359 -0.104138 0.102160
v 0.000000 -0.106863 0.103807
v 0.024359 -0.185073 0.151238
v 0.000000 -0.185073 0.151238
v 0.024359 -0.224097 0.121008
v 0.000000 -0.224097 0.121008
v 0.024359 -0.238896 0.056539
v 0.000000 -0.238896 0.056539
v 0.024359 -0.233689 -0.046963
v 0.000000 -0.233689 -0.046963
v 0.056825 -0.192090 -0.065658
v 0.000000 -0.121376 0.162705
v 0.024359 -0.121376 0.162705
v 0.000000 -0.128490 0.128423
v 0.024359 -0.128490 0.128423
v -0.043091 -0.090103 0.282133
v -0.043091 -0.070825 0.282133
v -0.063197 -0.112793 -0.383628
v -0.063197 -0.070825 -0.383628
v -0.063197 -0.112793 -0.050747
v -0.063197 -0.070825 -0.050747
v -0.063197 -0.070825 0.194803
v -0.063197 -0.096055 0.194803
v -0.056825 -0.522928 -0.144955
v -0.056825 -0.510058 -0.383472
v -0.056825 -0.266315 -0.334923
v -0.056825 -0.395921 -0.127603
v -0.056825 -0.363358 -0.371124
v -0.056825 -0.207902 -0.318158
v -0.056825 -0.149412 -0.321911
v -0.024359 -0.103948 0.167596
v -0.024359 -0.189050 0.163613
v -0.024359 -0.235153 0.128907
v -0.024359 -0.252671 0.057807
v -0.024359 -0.247227 -0.049803
v -0.056825 -0.266315 -0.103101
v -0.024359 -0.104138 0.102160
v -0.024359 -0.185073 0.151238
v -0.024359 -0.224097 0.121008
v -0.024359 -0.238896 0.056539
v -0.024359 -0.233689 -0.046963
v -0.056825 -0.192090 -0.065658
v -0.024359 -0.121376 0.162705
v -0.024359 -0.128490 0.128423
v 0.014974 -0.152980 0.025574
v 0.014974 -0.107566 0.029836
v 0.014974 -0.157820 0.006788
v 0.014974 -0.107566 -0.000204
v 0.014974 -0.188472 0.049424
v 0.014974 -0.199990 0.043438
v 0.014974 -0.201090 0.087497
v 0.014974 -0.208945 0.086589
v -0.014974 -0.152980 0.025574
v -0.014974 -0.107566 0.029836
v -0.014974 -0.157820 0.006788
v -0.014974 -0.107566 -0.000204
v -0.014974 -0.188472 0.049424
v -0.014974 -0.199990 0.043438
v -0.014974 -0.201090 0.087497
v -0.014974 -0.208945 0.086589
v -0.000000 0.050585 -0.067660
v -0.000000 0.050585 0.377002
v 0.036865 0.029301 -0.067660
v 0.036865 0.029301 0.377002
v 0.036865 -0.013268 -0.067660
v 0.036865 -0.013268 0.377002
v -0.036865 -0.013268 0.377002
v -0.036865 0.029301 -0.067660
v -0.000000 -0.034552 -0.067660
v -0.000000 -0.034552 0.377002
v -0.036865 -0.013268 -0.067660
v -0.036865 0.029301 0.377002
vt 0.429923 0.529014
vt 0.409862 0.502360
vt 0.429923 0.502360
vt 0.491709 0.387884
vt 0.452770 0.388101
vt 0.477914 0.375692
vt 0.920064 0.477023
vt 0.893409 0.496431
vt 0.893409 0.477023
vt 0.747096 0.183678
vt 0.747757 0.159135
vt 0.786035 0.183895
vt 0.920064 0.496431
vt 0.893409 0.514841
vt 0.007310 0.654471
vt 0.033965 0.638302
vt 0.033965 0.654471
vt 0.007310 0.627091
vt 0.033965 0.627091
vt 0.483375 0.458852
vt 0.452528 0.432198
vt 0.483375 0.432198
vt 0.530578 0.963492
vt 0.480905 0.931144
vt 0.530578 0.931144
vt 0.007283 0.076266
vt 0.022463 0.007312
vt 0.027114 0.076266
vt 0.244464 0.162226
vt 0.313122 0.128355
vt 0.313111 0.162226
vt 0.209456 0.184870
vt 0.243327 0.116245
vt 0.259130 0.184870
vt 0.347349 0.204158
vt 0.362500 0.238029
vt 0.336844 0.238029
vt 0.744274 0.737075
vt 0.793948 0.475491
vt 0.793948 0.737075
vt 0.040298 0.530826
vt 0.007295 0.269233
vt 0.040282 0.269232
vt 0.051454 0.112552
vt 0.051454 0.162226
vt 0.237256 0.520893
vt 0.362670 0.343156
vt 0.352566 0.530595
vt 0.283110 0.051971
vt 0.238981 0.096636
vt 0.235504 0.051971
vt 0.069088 0.482222
vt 0.739105 0.965781
vt 0.783770 0.903608
vt 0.788778 0.965781
vt 0.595718 0.257537
vt 0.551053 0.459478
vt 0.551053 0.239799
vt 0.576678 0.825897
vt 0.476847 0.870562
vt 0.477034 0.825897
vt 0.155129 0.051971
vt 0.043631 0.096636
vt 0.040154 0.051971
vt 0.964788 0.466068
vt 0.927921 0.416394
vt 0.964788 0.416394
vt 0.158606 0.096636
vt 0.678294 0.825897
vt 0.576491 0.870562
vt 0.160977 0.492446
vt 0.262840 0.329521
vt 0.115063 0.479272
vt 0.102622 0.280845
vt 0.331091 0.096636
vt 0.286586 0.096636
vt 0.160966 0.310268
vt 0.641556 0.679139
vt 0.660703 0.625941
vt 0.660703 0.679139
vt 0.641556 0.625941
vt 0.660703 0.590059
vt 0.150333 0.246508
vt 0.206233 0.265655
vt 0.150333 0.265655
vt 0.206233 0.246508
vt 0.290812 0.265655
vt 0.318247 0.246508
vt 0.332721 0.291173
vt 0.941491 0.042047
vt 0.960638 0.082144
vt 0.941491 0.082144
vt 0.941491 0.007310
vt 0.960638 0.042047
vt 0.783244 0.057712
vt 0.764097 0.007313
vt 0.783244 0.007313
vt 0.783244 0.139138
vt 0.764097 0.057712
vt 0.758252 0.870724
vt 0.739105 0.903608
vt 0.739105 0.870724
vt 0.501119 0.510251
vt 0.454664 0.489519
vt 0.502137 0.482755
vt 0.420643 0.463060
vt 0.449301 0.498213
vt 0.420643 0.405513
vt 0.430566 0.459112
vt 0.454831 0.329143
vt 0.431394 0.407137
vt 0.445033 0.324429
vt 0.490270 0.322204
vt 0.513501 0.517261
vt 0.525660 0.467297
vt 0.826203 0.597178
vt 0.845534 0.578031
vt 0.846826 0.597178
vt 0.641556 0.692787
vt 0.660703 0.692787
vt 0.580252 0.931144
vt 0.392769 0.531201
vt 0.377589 0.462246
vt 0.397421 0.462247
vt 0.313122 0.196096
vt 0.244475 0.211899
vt 0.175586 0.116245
vt 0.159782 0.184870
vt 0.347349 0.271899
vt 0.362500 0.271899
vt 0.694600 0.475491
vt 0.694600 0.737075
vt 0.410605 0.007687
vt 0.377601 0.269280
vt 0.377617 0.007686
vt 0.051454 0.211899
vt 0.410589 0.269281
vt 0.607562 0.017619
vt 0.732976 0.195357
vt 0.633146 0.208991
vt 0.238981 0.007306
vt 0.286586 0.007306
vt 0.439394 0.056291
vt 0.694439 0.903608
vt 0.689431 0.965781
vt 0.506388 0.257537
vt 0.576678 0.915228
vt 0.043631 0.007306
vt 0.158606 0.007306
vt 0.964788 0.366721
vt 0.678294 0.915228
vt 0.678107 0.870562
vt 0.531283 0.046067
vt 0.531272 0.228244
vt 0.485369 0.059241
vt 0.472928 0.257668
vt 0.331091 0.007306
vt 0.622410 0.625941
vt 0.622410 0.679139
vt 0.622410 0.590059
vt 0.206233 0.227361
vt 0.150333 0.227361
vt 0.290812 0.227361
vt 0.290812 0.246508
vt 0.979785 0.042047
vt 0.979785 0.082144
vt 0.979785 0.007310
vt 0.744950 0.057712
vt 0.744950 0.007313
vt 0.744950 0.139138
vt 0.719958 0.870724
vt 0.798637 0.868873
vt 0.845093 0.848142
vt 0.850455 0.856836
vt 0.879113 0.821682
vt 0.869191 0.817734
vt 0.879113 0.764136
vt 0.844926 0.687765
vt 0.854724 0.683051
vt 0.809487 0.680826
vt 0.859093 0.638294
vt 0.786256 0.875884
vt 0.797620 0.841377
vt 0.826203 0.558884
vt 0.846826 0.558884
vt 0.622410 0.692787
vt 0.832107 0.733247
vt 0.808567 0.703105
vt 0.832107 0.703105
vt 0.964781 0.309076
vt 0.965685 0.268043
vt 0.980311 0.272343
vt 0.978055 0.640733
vt 0.984220 0.664273
vt 0.978055 0.664273
vt 0.054108 0.251089
vt 0.082245 0.227550
vt 0.082245 0.251089
vt 0.941489 0.326948
vt 0.979146 0.350488
vt 0.941489 0.350488
vt 0.244831 0.305664
vt 0.216058 0.282124
vt 0.244831 0.282124
vt 0.972572 0.229120
vt 0.117896 0.251089
vt 0.278742 0.305664
vt 0.278742 0.282124
vt 0.963891 0.234483
vt 0.947063 0.205696
vt 0.967561 0.160844
vt 0.968466 0.201877
vt 0.952935 0.165145
vt 0.960674 0.121922
vt 0.986182 0.098496
vt 0.969354 0.127284
vt 0.595549 0.960112
vt 0.612284 0.931139
vt 0.645742 0.931142
vt 0.992693 0.498423
vt 0.992685 0.531233
vt 0.934732 0.531219
vt 0.835775 0.751828
vt 0.486246 0.780805
vt 0.486263 0.751828
vt 0.835757 0.780805
vt 0.486263 0.809782
vt 0.926871 0.007304
vt 0.893411 0.356744
vt 0.893411 0.007306
vt 0.678158 0.575399
vt 0.649181 0.225598
vt 0.678158 0.225975
vt 0.649181 0.575023
vt 0.620205 0.225975
vt 0.356746 0.872675
vt 0.007307 0.906134
vt 0.007308 0.872675
vt 0.302497 0.114545
vt 0.127031 0.159704
vt 0.127031 0.114545
vt 0.302497 0.204863
vt 0.127031 0.204863
vt 0.409862 0.529014
vt 0.491709 0.417343
vt 0.453431 0.412643
vt 0.463593 0.375761
vt 0.786035 0.154436
vt 0.772240 0.196087
vt 0.757919 0.196018
vt 0.920064 0.514841
vt 0.007310 0.638302
vt 0.452528 0.458852
vt 0.480905 0.963492
vt 0.007311 0.007312
vt 0.244475 0.112552
vt 0.209456 0.116245
vt 0.362500 0.204158
vt 0.744274 0.475491
vt 0.007310 0.530827
vt 0.595718 0.445005
vt 0.916306 0.461059
vt 0.328983 0.051971
vt 0.641556 0.590059
vt 0.960638 0.007310
vt 0.764097 0.139138
vt 0.440664 0.279672
vt 0.826203 0.578031
vt 0.580252 0.963492
vt 0.377617 0.531201
vt 0.722872 0.007919
vt 0.506388 0.445005
vt 0.477034 0.915228
vt 0.916306 0.371729
vt 0.332721 0.201843
vt 0.868362 0.765760
vt 0.774097 0.825919
vt 0.808567 0.733247
vt 0.944511 0.296976
vt 0.984220 0.640733
vt 0.054108 0.227550
vt 0.979146 0.326948
vt 0.216058 0.305664
vt 0.117896 0.227550
vt 0.943285 0.210631
vt 0.988736 0.189777
vt 0.989960 0.103432
vt 0.662467 0.960118
vt 0.645733 0.989092
vt 0.612274 0.989089
vt 0.963704 0.547631
vt 0.934740 0.498408
vt 0.963721 0.482010
vt 0.835775 0.809782
vt 0.926871 0.356742
vt 0.620205 0.575399
vt 0.356745 0.906134
vt 0.302497 0.159704
vn 0.0000 0.5871 0.8095
vn 0.0000 0.8419 0.5396
vn -1.0000 -0.0000 0.0000
vn 0.0000 -0.6086 -0.7934
vn 0.0000 -0.2287 -0.9735
vn 1.0000 0.0000 0.0000
vn 0.0000 0.5288 -0.8488
vn 0.0000 0.9745 -0.2245
vn 0.0000 0.0000 -1.0000
vn 0.0343 -0.4555 -0.8896
vn 0.0000 -0.4400 -0.8980
vn 0.9936 0.0000 0.1129
vn 0.9745 0.0000 0.2244
vn 0.9941 0.0000 0.1081
vn 0.0000 -0.9968 0.0803
vn 0.2608 -0.9617 0.0840
vn 0.0000 -0.9977 0.0680
vn 0.0000 1.0000 0.0000
vn 0.0000 0.7529 0.6581
vn 0.0000 0.0000 1.0000
vn 0.0000 0.7071 0.7071
vn 0.9990 -0.0441 0.0000
vn 0.9996 -0.0270 -0.0036
vn 0.0338 -0.9992 0.0224
vn 0.0000 -0.9999 0.0137
vn -0.0000 0.1453 -0.9894
vn 0.3532 0.2903 -0.8894
vn 0.0000 0.3157 -0.9489
vn 0.9941 -0.1089 -0.0009
vn 0.0000 -0.1848 0.9828
vn 0.0143 -0.9988 -0.0469
vn 0.0000 -0.9986 -0.0525
vn -0.0000 -0.9989 -0.0460
vn 0.3047 -0.1522 0.9402
vn -0.0000 -0.1354 0.9908
vn 0.3057 -0.1289 0.9434
vn -0.0000 0.2122 -0.9772
vn 0.3680 0.0780 -0.9266
vn 0.0000 0.0839 -0.9965
vn -0.0000 -0.4792 -0.8777
vn 0.3608 0.2107 -0.9085
vn 0.3034 -0.1770 0.9363
vn 0.0000 -0.1614 0.9869
vn 0.9990 -0.0433 -0.0072
vn 0.2576 -0.4679 -0.8454
vn 0.3674 0.0962 -0.9251
vn 0.0000 -0.1297 0.9916
vn 0.0000 -0.3107 0.9505
vn 0.0000 -0.8345 0.5510
vn 0.0000 -0.9954 0.0954
vn 0.0399 -0.9703 0.2388
vn 0.0000 -0.9031 0.4295
vn 0.1309 -0.9053 0.4040
vn 0.0000 0.1375 -0.9905
vn 0.0000 -0.5783 -0.8158
vn 0.0075 -0.5738 -0.8190
vn 0.0000 0.8426 -0.5385
vn 0.0000 0.9962 -0.0876
vn 0.0000 0.7651 0.6440
vn 0.0000 0.4099 0.9121
vn 0.0000 0.8257 0.5641
vn 0.8748 -0.0995 0.4742
vn 0.9010 -0.1564 0.4046
vn 0.7517 -0.2695 0.6019
vn 0.0000 -0.7401 -0.6725
vn 0.0360 -0.7328 -0.6795
vn 0.0000 -0.2702 0.9628
vn -0.0343 -0.4555 -0.8896
vn -0.9745 -0.0000 0.2244
vn -0.9936 -0.0000 0.1129
vn -0.9941 -0.0000 0.1081
vn -0.2608 -0.9617 0.0840
vn -0.2061 -0.9745 0.0885
vn -0.9990 -0.0441 0.0000
vn -0.0338 -0.9992 0.0224
vn -0.9996 -0.0270 -0.0036
vn -0.3532 0.2903 -0.8894
vn -0.3674 0.0962 -0.9251
vn -0.9941 -0.1089 -0.0009
vn -0.0143 -0.9988 -0.0469
vn -0.3047 -0.1522 0.9402
vn -0.3680 0.0780 -0.9266
vn -0.3608 0.2107 -0.9085
vn -0.3034 -0.1770 0.9363
vn 0.0000 -0.1858 0.9826
vn -0.9990 -0.0433 -0.0072
vn -0.2576 -0.4679 -0.8454
vn -0.0399 -0.9703 0.2388
vn 0.0000 -0.9748 0.2232
vn -0.0075 -0.5738 -0.8190
vn -0.8748 -0.0995 0.4742
vn -0.9010 -0.1564 0.4046
vn -0.7517 -0.2695 0.6019
vn -0.7685 -0.2882 0.5713
vn -0.0360 -0.7328 -0.6795
vn 0.0000 0.9492 0.3146
vn 0.0000 -0.1148 0.9934
vn 0.0000 0.5578 0.8300
vn 0.0000 -0.1378 -0.9905
vn 0.0000 -0.6560 -0.7548
vn 0.0000 -0.0934 0.9956
vn 0.0000 -0.9791 -0.2032
vn 0.8660 -0.5000 -0.0000
vn 0.0000 -1.0000 -0.0000
vn -0.8660 -0.5000 -0.0000
vn -0.8660 0.5000 0.0000
vn 0.8660 0.5000 0.0000
vn 0.2061 -0.9745 0.0885
vn -0.0175 -0.9984 -0.0539
vn 0.7685 -0.2882 0.5713
vn 0.0175 -0.9984 -0.0539
vn -0.3057 -0.1289 0.9434
vn -0.1309 -0.9053 0.4040
s 1
f 1/1/1 9/2/2 3/3/1
f 12/4/3 9/5/3 11/6/3
f 4/7/4 7/8/5 2/9/4
f 6/10/6 1/11/6 7/12/6
f 12/13/5 8/14/7 7/8/5
f 6/15/2 10/16/8 9/17/2
f 10/16/8 8/18/7 11/19/7
f 2/20/9 14/21/9 4/22/9
f 20/23/9 17/24/10 19/25/11
f 27/26/12 15/27/13 30/28/14
f 29/29/15 15/30/16 21/31/17
f 28/32/18 16/33/19 27/34/18
f 15/35/20 22/36/21 21/37/20
f 20/38/18 24/39/18 18/40/18
f 17/41/22 24/42/6 23/43/23
f 23/44/24 29/29/15 26/45/25
f 24/42/6 30/28/14 23/43/23
f 39/46/6 31/47/6 32/48/6
f 44/49/26 35/50/27 36/51/28
f 23/43/23 42/52/29 17/41/22
f 26/53/30 68/54/30 23/55/30
f 32/56/31 34/57/32 33/58/33
f 37/59/34 34/60/35 31/61/36
f 40/62/37 32/63/38 33/64/39
f 17/65/10 43/66/40 19/67/11
f 36/51/28 39/68/41 40/62/37
f 56/69/42 38/70/43 37/59/34
f 35/71/6 37/72/6 39/46/6
f 41/73/6 42/52/29 68/74/44
f 44/49/26 42/75/45 41/76/46
f 41/73/6 56/77/6 35/71/6
f 69/78/47 48/79/48 70/80/47
f 49/81/48 50/82/49 48/79/48
f 51/83/49 52/84/50 50/85/49
f 53/86/50 54/87/51 52/84/50
f 54/87/51 57/88/52 56/89/53
f 60/90/54 71/91/55 72/92/56
f 62/93/57 61/94/54 60/90/54
f 64/95/58 63/96/57 62/97/57
f 66/98/59 65/99/58 64/95/58
f 66/100/59 45/101/60 67/102/61
f 70/103/6 60/104/6 72/105/6
f 50/106/6 60/104/6 48/107/6
f 52/108/6 62/109/6 50/106/6
f 52/108/6 66/110/62 64/111/6
f 54/112/63 68/113/64 66/110/62
f 46/114/6 72/105/6 58/115/6
f 72/116/56 59/117/65 58/118/66
f 47/119/67 70/80/47 46/120/67
f 75/121/68 20/23/9 19/25/11
f 73/122/69 79/123/70 80/124/71
f 29/29/15 73/125/72 80/126/73
f 74/127/19 28/32/18 79/128/18
f 73/129/20 22/36/21 74/130/19
f 78/131/18 20/38/18 76/132/18
f 75/133/74 78/134/3 76/135/3
f 29/29/15 77/136/75 26/45/25
f 80/124/71 78/134/3 77/137/76
f 85/138/3 81/139/3 84/140/3
f 44/49/26 83/141/77 86/142/78
f 87/143/79 77/137/76 75/133/74
f 99/144/30 26/53/30 77/145/30
f 34/57/32 82/146/80 33/58/33
f 84/147/81 34/60/35 38/70/43
f 40/62/37 82/148/82 85/149/83
f 43/66/40 75/150/68 19/67/11
f 36/51/28 85/149/83 83/141/77
f 93/151/84 38/70/43 57/152/85
f 83/153/3 84/140/3 93/154/3
f 86/155/3 99/156/86 87/143/79
f 87/157/87 44/49/26 86/142/78
f 86/155/3 93/154/3 99/156/86
f 89/158/48 69/78/47 100/159/47
f 90/160/49 49/81/48 89/158/48
f 91/161/50 51/83/49 90/162/49
f 92/163/88 53/86/50 91/161/50
f 92/163/88 57/88/52 55/164/89
f 71/91/55 95/165/54 101/166/90
f 61/94/54 96/167/57 95/165/54
f 63/96/57 97/168/58 96/169/57
f 65/99/58 98/170/59 97/168/58
f 98/171/59 45/101/60 99/144/60
f 100/172/3 95/173/3 89/174/3
f 95/173/3 90/175/3 89/174/3
f 96/176/3 91/177/3 90/175/3
f 91/177/3 98/178/91 92/179/92
f 92/179/92 99/180/93 93/181/94
f 88/182/3 101/183/3 100/172/3
f 59/117/65 101/184/90 94/185/95
f 100/159/47 47/119/67 88/186/67
f 116/187/96 106/188/96 114/189/96
f 105/190/6 102/191/6 104/192/6
f 116/193/97 109/194/97 108/195/97
f 114/196/98 102/197/98 110/198/98
f 112/199/99 105/200/99 104/201/99
f 115/202/100 104/203/100 107/204/100
f 102/191/6 107/205/6 104/192/6
f 102/197/101 111/206/101 110/198/101
f 117/207/102 107/204/102 109/208/102
f 106/209/6 109/210/6 107/205/6
f 110/211/3 113/212/3 112/213/3
f 115/214/3 110/211/3 112/213/3
f 117/215/3 114/216/3 115/214/3
f 124/217/20 127/218/20 123/219/20
f 128/220/9 125/221/9 120/222/9
f 123/223/103 126/224/104 122/225/103
f 127/226/104 128/227/105 126/224/104
f 128/228/105 129/229/106 125/230/106
f 129/231/106 118/232/18 125/233/106
f 119/234/18 120/235/107 118/232/18
f 121/236/107 122/237/103 120/238/107
f 79/239/18 25/240/18 78/241/18
f 25/240/18 27/242/18 24/243/18
f 1/1/1 6/244/2 9/2/2
f 12/4/3 4/245/3 3/246/3
f 3/246/3 9/5/3 12/4/3
f 9/5/3 10/247/3 11/6/3
f 4/7/4 12/13/5 7/8/5
f 1/11/6 2/248/6 7/12/6
f 7/12/6 8/249/6 6/10/6
f 8/249/6 5/250/6 6/10/6
f 12/13/5 11/251/7 8/14/7
f 6/15/2 5/252/8 10/16/8
f 10/16/8 5/252/8 8/18/7
f 2/20/9 13/253/9 14/21/9
f 20/23/9 18/254/9 17/24/10
f 27/26/12 16/255/13 15/27/13
f 29/29/15 30/256/108 15/30/16
f 28/32/18 22/257/21 16/33/19
f 15/35/20 16/258/19 22/36/21
f 20/38/18 25/259/18 24/39/18
f 17/41/22 18/260/6 24/42/6
f 23/44/24 30/256/108 29/29/15
f 24/42/6 27/26/12 30/28/14
f 39/46/6 37/72/6 31/47/6
f 44/49/26 41/76/46 35/50/27
f 23/43/23 68/74/44 42/52/29
f 26/53/30 45/101/30 68/54/30
f 32/56/31 31/261/109 34/57/32
f 37/59/34 38/70/43 34/60/35
f 40/62/37 39/68/41 32/63/38
f 17/65/10 42/262/45 43/66/40
f 36/51/28 35/50/27 39/68/41
f 56/69/42 57/152/85 38/70/43
f 35/71/6 56/77/6 37/72/6
f 44/49/26 43/263/40 42/75/45
f 41/73/6 68/74/44 56/77/6
f 69/78/47 49/81/48 48/79/48
f 49/81/48 51/264/49 50/82/49
f 51/83/49 53/86/50 52/84/50
f 53/86/50 55/164/89 54/87/51
f 54/87/51 55/164/89 57/88/52
f 60/90/54 61/94/54 71/91/55
f 62/93/57 63/265/57 61/94/54
f 64/95/58 65/99/58 63/96/57
f 66/98/59 67/266/61 65/99/58
f 66/100/59 68/54/60 45/101/60
f 70/103/6 48/107/6 60/104/6
f 50/106/6 62/109/6 60/104/6
f 52/108/6 64/111/6 62/109/6
f 52/108/6 54/112/63 66/110/62
f 54/112/63 56/267/110 68/113/64
f 46/114/6 70/103/6 72/105/6
f 72/116/56 71/268/55 59/117/65
f 47/119/67 69/78/47 70/80/47
f 75/121/68 76/269/9 20/23/9
f 73/122/69 74/270/69 79/123/70
f 29/29/15 21/31/17 73/125/72
f 74/127/19 22/257/21 28/32/18
f 73/129/20 21/37/20 22/36/21
f 78/131/18 25/259/18 20/38/18
f 75/133/74 77/137/76 78/134/3
f 29/29/15 80/126/73 77/136/75
f 80/124/71 79/123/70 78/134/3
f 85/138/3 82/271/3 81/139/3
f 44/49/26 36/51/28 83/141/77
f 87/143/79 99/156/86 77/137/76
f 99/144/30 45/101/30 26/53/30
f 34/57/32 81/272/111 82/146/80
f 84/147/81 81/273/112 34/60/35
f 40/62/37 33/64/39 82/148/82
f 43/66/40 87/274/87 75/150/68
f 36/51/28 40/62/37 85/149/83
f 93/151/84 84/147/81 38/70/43
f 83/153/3 85/138/3 84/140/3
f 87/157/87 43/263/40 44/49/26
f 86/155/3 83/153/3 93/154/3
f 89/158/48 49/81/48 69/78/47
f 90/160/49 51/264/49 49/81/48
f 91/161/50 53/86/50 51/83/49
f 92/163/88 55/164/89 53/86/50
f 92/163/88 93/275/113 57/88/52
f 71/91/55 61/94/54 95/165/54
f 61/94/54 63/265/57 96/167/57
f 63/96/57 65/99/58 97/168/58
f 65/99/58 67/266/61 98/170/59
f 98/171/59 67/102/61 45/101/60
f 100/172/3 101/183/3 95/173/3
f 95/173/3 96/176/3 90/175/3
f 96/176/3 97/276/3 91/177/3
f 91/177/3 97/276/3 98/178/91
f 92/179/92 98/178/91 99/180/93
f 88/182/3 94/277/3 101/183/3
f 59/117/65 71/268/55 101/184/90
f 100/159/47 69/78/47 47/119/67
f 116/187/96 108/278/96 106/188/96
f 105/190/6 103/279/6 102/191/6
f 116/193/97 117/280/97 109/194/97
f 114/196/98 106/281/98 102/197/98
f 112/199/99 113/282/99 105/200/99
f 115/202/100 112/283/100 104/203/100
f 102/191/6 106/209/6 107/205/6
f 102/197/101 103/284/101 111/206/101
f 117/207/102 115/202/102 107/204/102
f 106/209/6 108/285/6 109/210/6
f 110/211/3 111/286/3 113/212/3
f 115/214/3 114/216/3 110/211/3
f 117/215/3 116/287/3 114/216/3
f 123/219/20 121/288/20 124/217/20
f 121/288/20 119/289/20 124/217/20
f 119/289/20 129/290/20 124/217/20
f 125/221/9 118/291/9 120/222/9
f 120/222/9 122/292/9 126/293/9
f 126/293/9 128/220/9 120/222/9
f 123/223/103 127/226/104 126/224/104
f 127/226/104 124/294/105 128/227/105
f 128/228/105 124/295/105 129/229/106
f 129/231/106 119/234/18 118/232/18
f 119/234/18 121/296/107 120/235/107
f 121/236/107 123/297/103 122/237/103
f 79/239/18 28/298/18 25/240/18
f 25/240/18 28/298/18 27/242/18
