# Blender v3.2.0 OBJ File: 'arma.blend1'
# www.blender.org
v 0.000000 0.060230 -0.286411
v 0.000000 -0.048212 0.368160
v 0.000000 0.060230 0.368160
v 0.016955 0.060230 0.368160
v 0.044671 0.042742 0.368160
v 0.016955 0.060230 -0.286411
v 0.044671 0.042742 -0.317682
v 0.060153 0.005803 0.368160
v 0.060153 0.005803 -0.343925
v 0.063197 -0.070825 -0.383628
v 0.000000 -0.070825 -0.296835
v 0.000000 -0.048212 0.368160
v 0.038421 -0.070825 0.368160
v 0.016955 0.060230 0.195171
v 0.044671 0.042742 0.195171
v 0.000000 -0.070825 0.195171
v 0.063197 -0.070825 0.195171
v 0.000000 0.060230 0.195171
v 0.060153 0.005803 0.195171
v 0.038421 -0.070825 0.282133
v 0.038421 -0.048212 0.368160
v 0.038421 -0.048212 0.282133
v 0.000000 0.060230 -0.311267
v 0.016955 0.060230 -0.311267
v 0.062570 -0.037094 0.195171
v 0.062570 -0.037094 0.282133
v 0.062570 -0.037094 -0.368435
v 0.062570 -0.037094 0.368160
v 0.000000 -0.097659 0.282133
v 0.000000 -0.097659 0.368160
v 0.000000 -0.090103 0.195171
v 0.027975 -0.090103 0.282133
v 0.027982 -0.090103 0.368160
v 0.052742 -0.090103 0.195171
v 0.016955 0.005803 -0.343925
v 0.016955 -0.070825 -0.383628
v 0.016955 -0.037094 -0.368435
v 0.016955 0.042742 -0.317682
v 0.000000 0.042742 -0.317682
v 0.016955 -0.070825 -0.296835
v 0.016955 -0.032969 -0.296835
v 0.016955 0.004886 -0.296835
v 0.000000 -0.032969 -0.296835
v 0.000000 0.004886 -0.296835
v -0.016955 0.060230 0.368160
v -0.044671 0.042742 0.368160
v -0.016955 0.060230 -0.286411
v -0.044671 0.042742 -0.317682
v -0.060153 0.005803 0.368160
v -0.060153 0.005803 -0.343925
v -0.063197 -0.070825 -0.383628
v -0.038421 -0.070825 0.368160
v -0.016955 0.060230 0.195171
v -0.044671 0.042742 0.195171
v -0.063197 -0.070825 0.195171
v -0.060153 0.005803 0.195171
v -0.038421 -0.070825 0.282133
v -0.038421 -0.048212 0.368160
v -0.038421 -0.048212 0.282133
v -0.016955 0.060230 -0.311267
v -0.062570 -0.037094 0.195171
v -0.062570 -0.037094 0.282133
v -0.062570 -0.037094 -0.368435
v -0.062570 -0.037094 0.368160
v -0.027975 -0.090103 0.282133
v -0.027982 -0.090103 0.368160
v -0.052742 -0.090103 0.195171
v -0.016955 0.005803 -0.343925
v -0.016955 -0.070825 -0.383628
v -0.016955 -0.037094 -0.368435
v -0.016955 0.042742 -0.317682
v -0.016955 -0.070825 -0.296835
v -0.016955 -0.032969 -0.296835
v -0.016955 0.004886 -0.296835
v 0.008428 0.060230 0.353695
v 0.008428 0.060230 0.324221
v 0.008428 0.078375 0.327122
v 0.008428 0.078375 0.341766
v 0.008428 0.075317 0.348551
v -0.008428 0.060230 0.353695
v -0.008428 0.060230 0.324221
v -0.008428 0.078375 0.327122
v -0.008428 0.078375 0.341766
v -0.008428 0.075317 0.348551
v 0.000000 0.049327 -0.259834
v 0.000000 0.065404 -0.268071
v 0.000000 0.049327 -0.290004
v 0.000000 0.065404 -0.281767
v 0.032490 0.049327 -0.259834
v 0.032490 0.065404 -0.268071
v 0.032490 0.049327 -0.290004
v 0.032490 0.065404 -0.281767
v 0.005924 0.065404 -0.272730
v 0.005924 0.065404 -0.277108
v 0.026437 0.065404 -0.272730
v 0.026437 0.065404 -0.277108
v 0.005924 0.079636 -0.272730
v 0.005924 0.079636 -0.277108
v 0.026437 0.079636 -0.277108
v 0.026437 0.079636 -0.272730
v -0.032490 0.049327 -0.259834
v -0.032490 0.065404 -0.268071
v -0.032490 0.049327 -0.290004
v -0.032490 0.065404 -0.281767
v -0.005924 0.065404 -0.272730
v -0.005924 0.065404 -0.277108
v -0.026437 0.065404 -0.272730
v -0.026437 0.065404 -0.277108
v -0.005924 0.079636 -0.272730
v -0.005924 0.079636 -0.277108
v -0.026437 0.079636 -0.277108
v -0.026437 0.079636 -0.272730
vt 0.918322 0.669590
vt 0.918322 0.584360
vt 0.953434 0.655845
vt 0.857006 0.143654
vt 0.878791 0.007407
vt 0.878791 0.143345
vt 0.843679 0.143654
vt 0.857006 0.007716
vt 0.534508 0.715155
vt 0.602153 0.681441
vt 0.602112 0.715155
vt 0.063436 0.652431
vt 0.466210 0.681441
vt 0.042561 0.681441
vt 0.937717 0.753915
vt 0.915728 0.821527
vt 0.915728 0.753909
vt 0.948522 0.584360
vt 0.918322 0.584360
vt 0.948522 0.566587
vt 0.857006 0.522090
vt 0.843679 0.541623
vt 0.843679 0.522090
vt 0.394037 0.820676
vt 0.007311 0.857022
vt 0.007311 0.807348
vt 0.952659 0.888473
vt 0.918705 0.925313
vt 0.918705 0.888473
vt 0.466169 0.715155
vt 0.023259 0.715155
vt 0.878791 0.546355
vt 0.918322 0.545497
vt 0.940317 0.551436
vt 0.466462 0.652432
vt 0.602405 0.652431
vt 0.466158 0.741667
vt 0.857007 0.541623
vt 0.362654 0.181155
vt 0.343428 0.113597
vt 0.362409 0.113537
vt 0.011308 0.741667
vt 0.362654 0.045155
vt 0.075169 0.936569
vt 0.007564 0.954343
vt 0.007565 0.936569
vt 0.143910 0.936609
vt 0.075169 0.954343
vt 0.112288 0.523064
vt 0.070832 0.508205
vt 0.112288 0.508205
vt 0.143741 0.921439
vt 0.075000 0.921400
vt 0.007396 0.921400
vt 0.915728 0.685561
vt 0.954559 0.925313
vt 0.918705 0.953653
vt 0.940490 0.855959
vt 0.918705 0.855959
vt 0.462258 0.820676
vt 0.462258 0.857022
vt 0.918705 0.841491
vt 0.905378 0.841491
vt 0.905378 0.855959
vt 0.918705 0.881925
vt 0.905378 0.881925
vt 0.905378 0.911103
vt 0.918705 0.940281
vt 0.905378 0.940281
vt 0.918705 0.911103
vt 0.516214 0.538691
vt 0.545249 0.518068
vt 0.545968 0.555074
vt 0.575723 0.555074
vt 0.578968 0.498807
vt 0.605479 0.555074
vt 0.883210 0.655845
vt 0.871041 0.626813
vt 0.830352 0.143654
vt 0.808567 0.007407
vt 0.830352 0.007716
vt 0.534511 0.573693
vt 0.602156 0.607407
vt 0.466212 0.607407
vt 0.063439 0.636417
vt 0.466465 0.636417
vt 0.893740 0.753915
vt 0.888122 0.584360
vt 0.830352 0.522090
vt 0.007311 0.757675
vt 0.462258 0.757675
vt 0.394037 0.794021
vt 0.858096 0.888473
vt 0.892050 0.925313
vt 0.856196 0.925313
vt 0.466172 0.573693
vt 0.042564 0.607407
vt 0.023261 0.573693
vt 0.808567 0.143345
vt 0.888122 0.566587
vt 0.602408 0.636417
vt 0.466160 0.547181
vt 0.830352 0.541623
vt 0.808567 0.546355
vt 0.509134 0.026560
vt 0.441576 0.007334
vt 0.509194 0.007579
vt 0.011311 0.547181
vt 0.577576 0.007334
vt 0.158611 0.921395
vt 0.226216 0.939169
vt 0.158612 0.939169
vt 0.294957 0.939130
vt 0.226216 0.921395
vt 0.153745 0.508205
vt 0.161962 0.523064
vt 0.294788 0.954299
vt 0.226047 0.954338
vt 0.158443 0.954338
vt 0.874272 0.685561
vt 0.892050 0.953653
vt 0.855704 0.953653
vt 0.870265 0.855959
vt 0.892050 0.888473
vt 0.462258 0.794021
vt 0.892050 0.841491
vt 0.892050 0.855959
vt 0.892050 0.881925
vt 0.892050 0.940281
vt 0.892050 0.911103
vt 0.460639 0.928489
vt 0.430884 0.944872
vt 0.431604 0.907866
vt 0.401129 0.944872
vt 0.397885 0.888605
vt 0.371374 0.944872
vt 0.371371 0.876666
vt 0.346056 0.008571
vt 0.360318 0.010851
vt 0.360318 0.022359
vt 0.185226 0.282117
vt 0.179840 0.295366
vt 0.179840 0.282117
vt 0.168332 0.295366
vt 0.168332 0.282117
vt 0.834150 0.625364
vt 0.847399 0.613455
vt 0.847399 0.625364
vt 0.475975 0.283527
vt 0.475975 0.272019
vt 0.490237 0.269739
vt 0.334575 0.321121
vt 0.309037 0.307460
vt 0.334575 0.307460
vt 0.489175 0.363098
vt 0.476538 0.345862
vt 0.489175 0.339389
vt 0.979410 0.417000
vt 0.992129 0.391462
vt 0.992129 0.417000
vt 0.893410 0.416806
vt 0.904172 0.442344
vt 0.893410 0.442344
vt 0.941496 0.096967
vt 0.944937 0.113090
vt 0.941496 0.113090
vt 0.990043 0.575001
vt 0.978857 0.558878
vt 0.990043 0.558878
vt 0.981613 0.609558
vt 0.992583 0.625682
vt 0.981613 0.625682
vt 0.118102 0.269965
vt 0.129289 0.266525
vt 0.129289 0.269965
vt 0.589254 0.233396
vt 0.600441 0.236837
vt 0.589254 0.236837
vt 0.360112 0.307460
vt 0.992167 0.434903
vt 0.979530 0.452140
vt 0.979530 0.441377
vt 0.979410 0.365924
vt 0.992129 0.365924
vt 0.904172 0.391269
vt 0.893410 0.391269
vt 0.991941 0.132050
vt 0.988501 0.148174
vt 0.988501 0.132050
vt 0.460666 0.529132
vt 0.444543 0.517946
vt 0.460666 0.517946
vt 0.819537 0.613450
vt 0.808567 0.629574
vt 0.808567 0.613450
vt 0.941494 0.252377
vt 0.944934 0.241190
vt 0.944934 0.252377
vt 0.992070 0.221193
vt 0.988630 0.210006
vt 0.992070 0.210006
vt 0.553624 0.489509
vt 0.540375 0.475076
vt 0.553624 0.475076
vt 0.965604 0.626813
vt 0.967503 0.593098
vt 0.931650 0.669590
vt 0.843679 0.007716
vt 0.937723 0.821533
vt 0.394037 0.807348
vt 0.343673 0.181215
vt 0.062615 0.523064
vt 0.957185 0.685561
vt 0.955051 0.953653
vt 0.605481 0.486867
vt 0.869141 0.593098
vt 0.904995 0.669590
vt 0.602115 0.573693
vt 0.893734 0.821533
vt 0.896327 0.551436
vt 0.441516 0.026315
vt 0.357914 0.027691
vt 0.346056 0.031733
vt 0.185226 0.295366
vt 0.834150 0.613455
vt 0.490237 0.292900
vt 0.478379 0.288859
vt 0.309037 0.321121
vt 0.476538 0.356625
vt 0.979410 0.391462
vt 0.904172 0.416806
vt 0.944937 0.096967
vt 0.978857 0.575001
vt 0.992583 0.609558
vt 0.118102 0.266525
vt 0.600441 0.233396
vt 0.360112 0.321121
vt 0.992167 0.458613
vt 0.991941 0.148174
vt 0.444543 0.529132
vt 0.819537 0.629574
vt 0.941494 0.241190
vt 0.988630 0.221193
vt 0.540375 0.489509
vn 0.0000 -0.0000 1.0000
vn 0.5336 0.8457 -0.0000
vn 0.7633 0.6460 -0.0000
vn 0.0000 1.0000 -0.0000
vn 0.9986 0.0523 0.0000
vn 0.9744 0.2247 -0.0000
vn 0.9984 0.0563 0.0000
vn 0.8060 0.5919 0.0000
vn 0.9864 0.1646 0.0000
vn 0.5764 -0.8161 0.0419
vn -0.0000 -1.0000 -0.0000
vn 0.0000 -0.9991 -0.0430
vn 0.0000 0.5328 -0.8463
vn 0.0000 0.4539 -0.8910
vn 0.0000 0.5383 -0.8428
vn 0.9993 0.0374 0.0000
vn 0.9995 0.0316 0.0000
vn 0.9998 0.0186 0.0000
vn 0.4182 -0.9084 0.0000
vn 0.8254 -0.5381 0.1709
vn 0.4127 -0.8964 0.1616
vn 0.8334 -0.4816 0.2711
vn 0.9588 -0.2489 0.1368
vn 0.8421 -0.5394 0.0000
vn 0.9694 -0.2456 0.0000
vn 0.0000 0.0000 -1.0000
vn 0.5647 -0.8095 0.1609
vn 0.6203 -0.7844 -0.0000
vn 0.0000 -0.9999 -0.0172
vn 0.0000 0.4530 -0.8915
vn 0.0000 0.4107 -0.9118
vn 0.0000 0.5268 -0.8500
vn 0.0000 0.4260 -0.9047
vn 0.0000 0.3443 -0.9388
vn 0.0000 -0.4824 -0.8760
vn 0.0000 -0.2490 -0.9685
vn -1.0000 0.0000 0.0000
vn -0.5336 0.8457 -0.0000
vn -0.7633 0.6460 -0.0000
vn -0.9986 0.0523 0.0000
vn -0.9744 0.2247 -0.0000
vn -0.8060 0.5919 0.0000
vn -0.5764 -0.8161 0.0419
vn -0.9993 0.0374 0.0000
vn -0.9864 0.1646 0.0000
vn -0.9995 0.0316 0.0000
vn -0.9998 0.0186 0.0000
vn -0.8254 -0.5381 0.1709
vn -0.4182 -0.9084 0.0000
vn -0.4127 -0.8964 0.1616
vn -0.8334 -0.4816 0.2711
vn -0.8421 -0.5394 0.0000
vn -0.9588 -0.2489 0.1368
vn -0.9694 -0.2456 0.0000
vn -0.5647 -0.8095 0.1609
vn -0.6203 -0.7844 -0.0000
vn 1.0000 0.0000 0.0000
vn 0.0000 0.9116 0.4110
vn 0.0000 0.3227 0.9465
vn 0.0000 0.4560 -0.8900
vn 0.0000 0.4560 0.8900
vn 0.0000 0.1578 -0.9875
vn -0.9984 0.0563 0.0000
s 1
f 3/1/1 2/2/1 5/3/1
f 14/4/2 5/5/3 15/6/3
f 18/7/4 4/8/4 14/4/4
f 26/9/5 8/10/6 28/11/7
f 7/12/8 19/13/6 9/14/9
f 32/15/10 30/16/11 29/17/12
f 21/18/1 12/19/1 13/20/1
f 6/21/4 23/22/4 1/23/4
f 40/24/11 17/25/11 16/26/11
f 9/27/13 37/28/14 35/29/15
f 9/14/9 25/30/16 27/31/17
f 1/23/4 14/4/4 6/21/4
f 6/21/2 15/6/3 7/32/8
f 13/20/1 30/33/1 33/34/1
f 8/10/6 15/35/3 5/36/3
f 25/30/16 19/13/6 26/9/5
f 17/37/18 25/30/16 26/9/5
f 6/21/2 7/32/8 24/38/2
f 28/39/19 22/40/20 26/41/21
f 27/31/17 17/37/18 10/42/18
f 26/41/21 22/40/20 17/43/22
f 20/44/23 21/45/24 13/46/25
f 17/47/22 22/48/20 20/44/23
f 16/49/26 34/50/26 31/51/26
f 34/52/27 20/44/23 32/53/10
f 33/54/28 20/44/23 13/46/25
f 31/55/29 32/15/10 29/17/12
f 27/56/30 36/57/31 37/28/14
f 7/58/32 35/29/15 38/59/33
f 36/60/11 10/61/11 40/24/11
f 7/58/32 38/59/33 24/62/34
f 38/59/33 23/63/34 24/62/34
f 39/64/35 42/65/36 44/66/36
f 43/67/26 40/68/26 11/69/26
f 44/66/36 41/70/26 43/67/26
f 38/71/37 35/72/37 42/73/37
f 35/72/37 41/74/37 42/73/37
f 37/75/37 40/76/37 41/74/37
f 46/77/1 49/78/1 2/2/1
f 53/79/38 46/80/39 45/81/38
f 45/81/4 18/7/4 53/79/4
f 62/82/40 49/83/41 56/84/41
f 48/85/42 56/84/41 54/86/39
f 30/16/11 65/87/43 29/17/12
f 58/88/1 12/19/1 2/2/1
f 23/22/4 47/89/4 1/23/4
f 55/90/11 51/91/11 72/92/11
f 50/93/13 70/94/14 63/95/30
f 61/96/44 50/97/45 63/98/46
f 53/79/4 1/23/4 47/89/4
f 47/89/38 54/99/39 53/79/38
f 52/100/1 30/33/1 12/19/1
f 54/86/39 49/83/41 46/101/39
f 61/96/44 62/82/40 56/84/41
f 55/102/47 62/82/40 61/96/44
f 47/89/38 60/103/38 48/104/42
f 59/105/48 64/106/49 62/107/50
f 55/102/47 63/98/46 51/108/47
f 62/107/50 55/109/51 59/105/48
f 58/110/52 57/111/53 52/112/54
f 55/113/51 57/111/53 59/114/48
f 16/49/26 67/115/26 55/116/26
f 57/111/53 67/117/55 65/118/43
f 66/119/56 57/111/53 65/118/43
f 31/55/29 65/87/43 67/120/55
f 63/95/30 69/121/31 51/122/31
f 48/123/32 68/124/15 50/93/13
f 69/125/11 72/92/11 51/91/11
f 48/123/32 60/126/34 71/127/33
f 23/63/34 71/127/33 60/126/34
f 74/128/36 39/64/35 44/66/36
f 72/129/26 43/67/26 11/69/26
f 73/130/26 44/66/36 43/67/26
f 71/131/57 74/132/57 68/133/57
f 68/133/57 73/134/57 70/135/57
f 70/135/57 72/136/57 69/137/57
f 76/138/57 77/139/57 78/140/57
f 84/141/58 78/142/58 83/143/58
f 83/143/4 77/144/4 82/145/4
f 84/146/59 75/147/59 79/148/59
f 83/149/37 82/150/37 81/151/37
f 88/152/60 91/153/60 87/154/60
f 91/155/57 90/156/57 89/157/57
f 90/158/61 85/159/61 89/160/61
f 88/161/4 90/162/4 92/163/4
f 98/164/4 100/165/4 99/166/4
f 95/167/1 97/168/1 93/169/1
f 94/170/26 99/171/26 96/172/26
f 95/173/57 99/174/57 100/175/57
f 93/176/37 98/177/37 94/178/37
f 103/179/60 88/152/60 87/154/60
f 103/180/37 102/181/37 104/182/37
f 85/159/61 102/183/61 101/184/61
f 102/185/4 88/161/4 104/186/4
f 112/187/4 110/188/4 111/189/4
f 109/190/1 107/191/1 105/192/1
f 111/193/26 106/194/26 108/195/26
f 107/196/37 111/197/37 108/198/37
f 110/199/57 105/200/57 106/201/57
f 82/202/62 76/203/62 81/204/62
f 2/2/1 21/18/1 8/205/1
f 21/18/1 28/206/1 8/205/1
f 8/205/1 5/3/1 2/2/1
f 5/3/1 4/207/1 3/1/1
f 14/4/2 4/8/2 5/5/3
f 18/7/4 3/208/4 4/8/4
f 26/9/5 19/13/6 8/10/6
f 7/12/8 15/35/3 19/13/6
f 32/15/10 33/209/28 30/16/11
f 21/18/1 2/2/1 12/19/1
f 6/21/4 24/38/4 23/22/4
f 16/26/11 11/210/11 40/24/11
f 40/24/11 10/61/11 17/25/11
f 9/27/13 27/56/30 37/28/14
f 9/14/9 19/13/6 25/30/16
f 1/23/4 18/7/4 14/4/4
f 6/21/2 14/4/2 15/6/3
f 13/20/1 12/19/1 30/33/1
f 8/10/6 19/13/6 15/35/3
f 28/39/19 21/211/24 22/40/20
f 27/31/17 25/30/16 17/37/18
f 20/44/23 22/48/20 21/45/24
f 16/49/26 17/212/26 34/50/26
f 34/52/27 17/47/22 20/44/23
f 33/54/28 32/53/10 20/44/23
f 31/55/29 34/213/27 32/15/10
f 27/56/30 10/214/31 36/57/31
f 7/58/32 9/27/13 35/29/15
f 38/59/33 39/64/34 23/63/34
f 39/64/35 38/59/35 42/65/36
f 43/67/26 41/70/26 40/68/26
f 44/66/36 42/65/36 41/70/26
f 35/72/37 37/75/37 41/74/37
f 37/75/37 36/215/37 40/76/37
f 64/216/1 58/88/1 49/78/1
f 58/88/1 2/2/1 49/78/1
f 2/2/1 3/1/1 46/77/1
f 3/1/1 45/217/1 46/77/1
f 53/79/38 54/99/39 46/80/39
f 45/81/4 3/208/4 18/7/4
f 62/82/40 64/218/63 49/83/41
f 48/85/42 50/97/45 56/84/41
f 30/16/11 66/219/56 65/87/43
f 58/88/1 52/100/1 12/19/1
f 23/22/4 60/103/4 47/89/4
f 72/92/11 11/210/11 16/26/11
f 16/26/11 55/90/11 72/92/11
f 50/93/13 68/124/15 70/94/14
f 61/96/44 56/84/41 50/97/45
f 53/79/4 18/7/4 1/23/4
f 47/89/38 48/104/42 54/99/39
f 52/100/1 66/220/1 30/33/1
f 54/86/39 56/84/41 49/83/41
f 59/105/48 58/221/52 64/106/49
f 55/102/47 61/96/44 63/98/46
f 58/110/52 59/114/48 57/111/53
f 16/49/26 31/51/26 67/115/26
f 57/111/53 55/113/51 67/117/55
f 66/119/56 52/112/54 57/111/53
f 31/55/29 29/17/12 65/87/43
f 63/95/30 70/94/14 69/121/31
f 48/123/32 71/127/33 68/124/15
f 23/63/34 39/64/34 71/127/33
f 74/128/36 71/127/35 39/64/35
f 72/129/26 73/130/26 43/67/26
f 73/130/26 74/128/36 44/66/36
f 68/133/57 74/132/57 73/134/57
f 70/135/57 73/134/57 72/136/57
f 79/222/57 75/223/57 78/140/57
f 75/223/57 76/138/57 78/140/57
f 84/141/58 79/224/58 78/142/58
f 83/143/4 78/142/4 77/144/4
f 84/146/59 80/225/59 75/147/59
f 81/151/37 80/226/37 83/149/37
f 80/226/37 84/227/37 83/149/37
f 88/152/60 92/228/60 91/153/60
f 91/155/57 92/229/57 90/156/57
f 90/158/61 86/230/61 85/159/61
f 88/161/4 86/231/4 90/162/4
f 98/164/4 97/232/4 100/165/4
f 95/167/1 100/233/1 97/168/1
f 94/170/26 98/234/26 99/171/26
f 95/173/57 96/235/57 99/174/57
f 93/176/37 97/236/37 98/177/37
f 103/179/60 104/237/60 88/152/60
f 103/180/37 101/238/37 102/181/37
f 85/159/61 86/230/61 102/183/61
f 102/185/4 86/231/4 88/161/4
f 112/187/4 109/239/4 110/188/4
f 109/190/1 112/240/1 107/191/1
f 111/193/26 110/241/26 106/194/26
f 107/196/37 112/242/37 111/197/37
f 110/199/57 109/243/57 105/200/57
f 82/202/62 77/244/62 76/203/62
