# Blender v3.1.2 OBJ File: 'cenario-jogo.blend1'
# www.blender.org
v -0.015523 -0.423105 -0.600000
v -0.015523 -0.423105 0.000000
v -0.015523 0.268558 0.000000
v -0.015523 0.268558 -0.600000
v 0.015522 -0.423105 0.000000
v 0.015522 -0.423105 -0.600000
v 0.015522 0.268558 0.000000
v 0.015522 0.268558 -0.600000
vt 0.820774 0.056319
vt 0.127542 0.484157
vt 0.820776 0.484156
vt 0.127542 0.503360
vt 0.820777 0.931197
vt 0.820776 0.503360
vt 0.856647 0.931197
vt 0.856647 0.503360
vt 0.127543 0.931197
vt 0.091672 0.503360
vt 0.091672 0.931197
vt 0.127543 0.950401
vt 0.820777 0.950400
vt 0.127540 0.056320
vn -0.5774 0.7650 0.2855
vn -0.5774 -0.3390 -0.7428
vn -0.5774 -0.5773 0.5774
vn 0.5774 -0.3389 -0.7428
vn 0.5774 0.7649 0.2856
vn 0.5774 -0.5774 0.5773
vn 0.5902 -0.5642 0.5774
vn -0.0184 0.8163 0.5774
vn -0.5773 -0.5774 0.5774
vn 0.5902 0.5642 -0.5774
vn -0.0184 -0.8163 -0.5774
vn -0.5773 0.5774 -0.5774
vn 0.5921 -0.5774 -0.5622
vn -0.0212 -0.5774 0.8162
vn -0.5773 -0.5774 -0.5774
vn 0.5921 0.5774 0.5622
vn -0.0212 0.5774 -0.8162
vn -0.5773 0.5774 0.5774
vn -0.5774 0.3390 0.7428
vn -0.5774 0.5773 -0.5774
vn -0.5774 -0.7650 -0.2855
vn 0.5774 -0.7649 -0.2856
vn 0.5774 0.5774 -0.5773
vn 0.5774 0.3389 0.7428
vn 0.0184 -0.8163 0.5774
vn 0.5773 0.5774 0.5774
vn -0.5902 0.5642 0.5774
vn 0.0184 0.8163 -0.5774
vn 0.5773 -0.5774 -0.5774
vn -0.5902 -0.5642 -0.5774
vn 0.0212 -0.5774 -0.8162
vn 0.5773 -0.5774 0.5774
vn -0.5921 -0.5774 0.5622
vn 0.0212 0.5774 0.8162
vn 0.5773 0.5774 -0.5774
vn -0.5921 0.5774 -0.5622
s off
f 3/1/1 1/2/2 2/3/3
f 6/4/4 7/5/5 5/6/6
f 5/6/7 3/7/8 2/8/9
f 8/9/10 1/10/11 4/11/12
f 6/4/13 2/3/14 1/2/15
f 7/5/16 4/12/17 3/13/18
f 3/1/19 4/14/20 1/2/21
f 6/4/22 8/9/23 7/5/24
f 5/6/25 7/5/26 3/7/27
f 8/9/28 6/4/29 1/10/30
f 6/4/31 5/6/32 2/3/33
f 7/5/34 8/9/35 4/12/36
