# Blender v3.1.2 OBJ File: 'objects.blend1'
# www.blender.org
v 0.053604 -0.423105 0.600000
v 0.053604 -0.423105 -0.600000
v 0.053604 0.268558 -0.600000
v 0.053604 0.268558 0.600000
v -0.053452 -0.423105 -0.600000
v -0.053452 -0.423105 0.600000
v -0.053452 0.268558 -0.600000
v -0.053452 0.268558 0.600000
vt 0.385604 0.075780
vt 0.719447 0.924220
vt 0.385604 0.924220
vt 0.000088 0.924220
vt 0.333931 0.075780
vt 0.333931 0.924220
vt 0.385604 0.999912
vt 0.719447 0.000088
vt 0.719447 0.075780
vt 0.771120 0.924219
vt 0.000088 0.075780
vt 0.719447 0.999912
vt 0.385604 0.000088
vt 0.771120 0.075780
vn -1.0000 0.0000 0.0000
vn 1.0000 0.0000 -0.0000
vn 0.0000 0.0000 1.0000
vn 0.0000 0.0000 -1.0000
vn 0.0000 1.0000 0.0000
vn 0.0000 -1.0000 0.0000
s off
f 1/1/1 3/2/1 2/3/1
f 7/4/2 6/5/2 5/6/2
f 3/2/3 5/7/3 2/3/3
f 1/1/4 8/8/4 4/9/4
f 2/3/5 6/5/5 1/1/5
f 4/9/6 7/10/6 3/2/6
f 1/1/1 4/9/1 3/2/1
f 7/4/2 8/11/2 6/5/2
f 3/2/3 7/12/3 5/7/3
f 1/1/4 6/13/4 8/8/4
f 2/3/5 5/6/5 6/5/5
f 4/9/6 8/14/6 7/10/6
