# Blender v3.1.2 OBJ File: 'objects.blend1'
# www.blender.org
v -1.000936 -1.555091 1.000000
v -1.000936 0.945758 1.000000
v -1.639849 -1.555091 -1.000000
v -1.639849 1.555091 -1.000000
v 1.000936 -1.555091 1.000000
v 1.000936 0.945758 1.000000
v 1.639849 -1.555091 -1.000000
v 1.639849 1.555091 -1.000000
vt 0.000616 0.599783
vt 0.000724 0.999360
vt 0.439578 0.999517
vt 0.439399 0.599773
vt 0.000213 0.150392
vt 0.000149 0.550746
vt 0.437915 0.550642
vt 0.437639 0.150657
vt 0.000616 0.599783
vt 0.000724 0.999360
vt 0.439578 0.999517
vt 0.439399 0.599773
vt 0.939659 0.999481
vt 0.939502 0.599715
vt 0.500654 0.599921
vt 0.500715 0.999498
vt 0.437906 0.150598
vt 0.001026 0.151218
vt 0.000498 0.550591
vt 0.437564 0.550161
vt 0.526503 0.551920
vt 0.889495 0.445433
vt 0.889595 0.127329
vt 0.526601 0.028499
vn 0.4738 0.5954 -0.6489
vn 0.6675 0.5628 0.4875
vn 0.6430 -0.6385 0.4230
vn 0.4807 -0.4864 -0.7296
vn -0.6675 0.5628 0.4875
vn -0.6429 -0.6386 0.4230
vn 0.6429 -0.6386 0.4230
vn -0.4738 0.5954 -0.6489
vn -0.4807 -0.4864 -0.7296
vn -0.6430 -0.6385 0.4230
vn -0.4739 0.5954 -0.6488
vn 0.4739 0.5954 -0.6488
vn 0.4807 -0.4865 -0.7296
vn -0.4807 -0.4865 -0.7296
vn 0.6675 0.5629 0.4875
vn 0.4739 0.5953 -0.6488
vn -0.4738 0.5953 -0.6489
vn -0.6675 0.5629 0.4875
vn -0.6429 -0.6385 0.4230
vn -0.4808 -0.4865 -0.7295
vn 0.6429 -0.6385 0.4230
s off
f 1/1/1 3/2/2 4/3/3 2/4/4
f 3/5/2 7/6/5 8/7/6 4/8/7
f 7/9/5 5/10/8 6/11/9 8/12/10
f 5/13/11 1/14/12 2/15/13 6/16/14
f 3/17/15 1/18/16 5/19/17 7/20/18
f 8/21/19 6/22/20 2/23/4 4/24/21
